<?xml version="1.0" encoding="UTF-8"?>
<svg id="_圖層_2" data-name="圖層 2" xmlns="http://www.w3.org/2000/svg" viewBox="0 0 223.04 156.86">
  <defs>
    <style>
      .cls-1 {
        letter-spacing: .12em;
      }

      .cls-2 {
        font-family: SuperUnicorn, 'Super Unicorn';
        font-size: 24px;
      }

      .cls-3 {
        letter-spacing: .11em;
      }

      .cls-4, .cls-5, .cls-6, .cls-7 {
        stroke-width: 0px;
      }

      .cls-8 {
        letter-spacing: .1em;
      }

      .cls-9 {
        fill: none;
        stroke: #000;
        stroke-linecap: round;
        stroke-miterlimit: 10;
        stroke-width: 5px;
      }

      .cls-5 {
        fill: #efeff7;
      }

      .cls-6 {
        fill: #fff;
      }

      .cls-7 {
        fill: #efeae1;
      }

      .cls-10 {
        letter-spacing: .08em;
      }

      .cls-11 {
        letter-spacing: .1em;
      }
    </style>
  </defs>
  <g id="_圖層_1-2" data-name="圖層 1">
    <ellipse class="cls-5" cx="111.52" cy="78.43" rx="111.52" ry="78.43"/>
    <g>
      <path class="cls-4" d="m119.26,38.66c-.21-3.49,3.49-8.36,7.99-10.47,6.1-2.77,10.3.88,7.96,6.46-2.35,5.58-8.32,7.7-9.68,7.89-2.55.36-6.05-.39-6.26-3.88Z"/>
      <path class="cls-4" d="m103.86,38.66c.21-3.49-3.49-8.36-7.99-10.47-6.1-2.77-10.3.88-7.96,6.46,2.35,5.58,8.32,7.7,9.68,7.89,2.55.36,6.05-.39,6.26-3.88Z"/>
      <g>
        <path class="cls-4" d="m120.71,75.55s1.17-14.61,10.04-23.35c8.87-8.74,19.7-11.48,27.39-10.83,7.7.65,12.13,1.96,12.13,1.96,0,0,2.48,16.7-5.48,28.04-7.96,11.35-19.3,12.52-31.04,10.17s-13.04-6-13.04-6Z"/>
        <path class="cls-7" d="m124.54,68.91s3.52-12.33,14.48-20.35c5.83-4.27,12.39-6.94,25.05-4.63,2.98,6.46,3.49,10.01,2.15,17.25-1.54,8.29-8.23,15.63-15.07,18.2-4.7,1.76-14.18,2.05-21.72-4.3-4.11-4.11-4.89-6.16-4.89-6.16Z"/>
        <ellipse class="cls-4" cx="145" cy="63.61" rx="10.7" ry="16.89"/>
        <ellipse class="cls-6" cx="151.25" cy="57.29" rx="8.9" ry="5.38"/>
      </g>
      <g>
        <path class="cls-4" d="m102.41,75.41s-1.17-14.61-10.04-23.35c-8.87-8.74-19.7-11.48-27.39-10.83-7.7.65-12.13,1.96-12.13,1.96,0,0-2.48,16.7,5.48,28.04,7.96,11.35,19.3,12.52,31.04,10.17,11.74-2.35,13.04-6,13.04-6Z"/>
        <path class="cls-7" d="m98.63,68.91s-3.52-12.33-14.48-20.35c-5.83-4.27-12.39-6.94-25.05-4.63-2.98,6.46-3.49,10.01-2.15,17.25,1.54,8.29,8.23,15.63,15.07,18.2,4.7,1.76,14.18,2.05,21.72-4.3,4.11-4.11,4.89-6.16,4.89-6.16Z"/>
        <ellipse class="cls-4" cx="78.08" cy="63.61" rx="10.7" ry="16.89"/>
        <ellipse class="cls-6" cx="82.38" cy="57.29" rx="8.9" ry="5.38"/>
      </g>
      <path class="cls-4" d="m112.11,84.39c11.54-.09,13.27,1.66,13.4,2.84.26,2.37-6.54,8.55-9.79,9.21-2.86.59-6.8,1.01-12.81-3.39-2.51-1.83-4.28-3.98-4.21-5.43.13-2.58,3.88-3.16,13.4-3.23Z"/>
      <g>
        <path class="cls-9" d="m111.48,95.87c.81,5.96-4.7,11.02-10.96,11.13-6.43.12-12.3-5-11.48-11.13"/>
        <path class="cls-9" d="m135.18,95.87c.81,5.96-4.7,11.02-10.96,11.13-6.43.12-12.3-5-11.48-11.13"/>
      </g>
    </g>
    <text class="cls-2" transform="translate(39.93 147.21)"><tspan class="cls-11" x="0" y="0">M</tspan><tspan class="cls-10" x="20.36" y="0">E</tspan><tspan class="cls-8" x="34.73" y="0" xml:space="preserve">OW  </tspan><tspan class="cls-1" x="93.19" y="0">G</tspan><tspan class="cls-3" x="109.47" y="0">Y</tspan><tspan class="cls-11" x="125.67" y="0">M</tspan></text>
  </g>
</svg>